<?xml version="1.0" encoding="UTF-8"?><svg id="Livello_1" xmlns="http://www.w3.org/2000/svg" viewBox="0 0 434.64 561.13"><defs><style>.cls-1{fill:#f9b443;}</style></defs><path class="cls-1" d="m303.93,252.73c-12.48,6.22-25.62,1.77-38.35,1.84-82.12.46-164.25-.33-246.37.62-21.59.25-23.6-4.88-12.91-22.35,13.56-22.15,26.2-44.99,37.33-68.43,8.21-17.29,19.8-21.98,38.39-21.62,52.81,1.04,105.66-.15,158.49-.47,2.18-.98,4.39-1.01,6.63-.25,20.6,22.92,37.43,48.68,55.34,73.65,8.74,12.19,5.63,24.49,1.45,37.01Z"/><path class="cls-1" d="m134.59,308.26c43.81-.56,87.63-1.38,131.44-1.63,51.27-.28,102.55.35,153.82-.3,16.58-.21,17.91,4.9,10.41,18-14.54,25.4-28.88,50.95-42.18,77.01-6.39,12.53-14.59,17.08-28.74,16.98-55.31-.41-110.63.45-165.95.84-2.32.77-4.59.63-6.8-.42-20.65-22.58-35.81-49.3-54.9-73.08-10.65-13.27-4.37-25.41,2.89-37.39Z"/><path class="cls-1" d="m245.56,144.06c-1.68-.57-3.36-1.15-5.04-1.72-25.66-25.03-16.87-49.02.36-74.59,13.5-20.04,23.9-42.16,38.11-67.75,27.8,45.33,65.59,79.97,85.22,127.46-2.51,11.69-10.9,18.85-21.48,20.3-32.48,4.45-65.24,8.93-97.17-3.71Z"/><path class="cls-1" d="m188.82,416.95c1.53.73,3.05,1.46,4.58,2.2,22.41,22.17,21.74,43.99,3.32,69.5-15.48,21.44-26.42,46.15-41.07,72.48-28.14-39.89-54.65-77.46-81.15-115.03-6.31-16.01-.71-28.74,15.06-31.85,32.98-6.5,66.52-10.03,99.26,2.7Z"/><path class="cls-1" d="m188.82,416.95c-28.08.3-56.16.7-84.24.87-18.93.11-31.12,7.09-30.08,28.28-6.98-6.43-8.43-15.1-9.93-23.87-7.03-41.07,33.06-106.46,70.01-113.97-7.43,21.33,2.19,37.17,15.14,53.24,14.16,17.57,26.16,36.89,39.1,55.44Z"/><path class="cls-1" d="m245.56,144.06c24.2-.22,48.44-1.33,72.59-.36,18.01.72,33.5-2.88,46.06-16.23,1.44,1.84,3.63,3.48,4.2,5.56,10.93,39.5-25.78,107.54-64.46,119.71-.74-.34-2.13-.81-2.09-1.01,7.01-36.98-24.13-55.43-39.59-81.45-5.29-8.91-11.13-17.48-16.72-26.21Z"/></svg>